# xmcd
#
# Track frame offsets: 
#        150
#        12967
#        26261
#        40414
#        54487
#        69023
#        81004
#        95633
#        107180
#        120681
#        130656
#        145125
#        154156
#        165541
#        179113
#        190177
#        204226
#        215704
#
# Disc length: 3033 seconds
#
# Revision: 0
# Processed by: cddbd v1.5.2PL0 Copyright (c) Steve Scherf et al.
# Submitted via: ExactAudioCopy v0.95b4
#
DISCID=f60bd712
DTITLE=Various Artist - Memories CD5
DYEAR=2008
DGENRE=Pop
TTITLE0=Judy Garland - Over The Rainbow
TTITLE1=Louis Armstrong And His All Stars - Moon River
TTITLE2=Brenda Lee - The End of the World
TTITLE3=Engelbert Humperdinck - Too Beautiful to Last
TTITLE4=Burt Bacharach - I'll Never Fall In Love Again
TTITLE5=The Platters - The Great Pretender
TTITLE6=The Mamas and The Papas - Dream A Little Dream of Me
TTITLE7=Connie Francis - Frankie
TTITLE8=The Troggs - Love Is All Around
TTITLE9=Buddy Holly - It's So Easy
TTITLE10=The Sandpipers - Guantanamera
TTITLE11=The Mindbenders - A Groovy Kind of Love
TTITLE12=The Marvelettes - Please Mr. Postman
TTITLE13=Bobby Helms - My Special Angel
TTITLE14=Sandy Posey - The Single Girl
TTITLE15=Debbie Reynolds - Tammy
TTITLE16=Georgia Gibbs - Tweedle-Dee
TTITLE17=Marianne Faithfull - As Tears Go By
EXTD=
EXTT0=
EXTT1=
EXTT2=
EXTT3=
EXTT4=
EXTT5=
EXTT6=
EXTT7=
EXTT8=
EXTT9=
EXTT10=
EXTT11=
EXTT12=
EXTT13=
EXTT14=
EXTT15=
EXTT16=
EXTT17=
PLAYORDER=
